<svg width="19.500000" height="19.500000" viewBox="0 0 19.5 19.5" fill="none" xmlns="http://www.w3.org/2000/svg" xmlns:xlink="http://www.w3.org/1999/xlink">
	<desc>
			Created with Pixso.
	</desc>
	<defs/>
	<path id="Vector" d="M4.5 0.75L4.5 3M15 0.75L15 3M0.75 5.25C0.75 4.65332 0.987045 4.08093 1.40901 3.65906C1.83096 3.23706 2.40326 3 3 3L16.5 3C17.0967 3 17.669 3.23706 18.091 3.65906C18.5129 4.08093 18.75 4.65332 18.75 5.25L18.75 16.5C18.75 17.0967 18.5129 17.6691 18.091 18.0909C17.669 18.5129 17.0967 18.75 16.5 18.75L3 18.75C2.40326 18.75 1.83096 18.5129 1.40901 18.0909C0.987045 17.6691 0.75 17.0967 0.75 16.5L0.75 5.25ZM0.75 16.5L0.75 9C0.75 8.40332 0.987045 7.83093 1.40901 7.40906C1.83096 6.98706 2.40326 6.75 3 6.75L16.5 6.75C17.0967 6.75 17.669 6.98706 18.091 7.40906C18.5129 7.83093 18.75 8.40332 18.75 9L18.75 16.5M9.758 10.5L9.758 10.5081L9.75 10.5081L9.75 10.5L9.758 10.5ZM9.758 12.75L9.758 12.7581L9.75 12.7581L9.75 12.75L9.758 12.75ZM9.758 15L9.758 15.0081L9.75 15.0081L9.75 15L9.758 15ZM7.508 12.75L7.508 12.7581L7.5 12.7581L7.5 12.75L7.508 12.75ZM7.508 15L7.508 15.0081L7.5 15.0081L7.5 15L7.508 15ZM5.258 12.75L5.258 12.7581L5.25 12.7581L5.25 12.75L5.258 12.75ZM5.258 15L5.258 15.0081L5.25 15.0081L5.25 15L5.258 15ZM12.008 10.5L12.008 10.5081L12 10.5081L12 10.5L12.008 10.5ZM12.008 12.75L12.008 12.7581L12 12.7581L12 12.75L12.008 12.75ZM12.008 15L12.008 15.0081L12 15.0081L12 15L12.008 15ZM14.258 10.5L14.258 10.5081L14.25 10.5081L14.25 10.5L14.258 10.5ZM14.258 12.75L14.258 12.7581L14.25 12.7581L14.25 12.75L14.258 12.75Z" stroke="#212121" stroke-opacity="1.000000" stroke-width="1.500000" stroke-linejoin="round"/>
</svg>
