<svg width="19.500000" height="19.500000" viewBox="0 0 19.5 19.5" fill="none" xmlns="http://www.w3.org/2000/svg" xmlns:xlink="http://www.w3.org/1999/xlink">
	<desc>
			Created with Pixso.
	</desc>
	<defs/>
	<path id="Vector" d="M9.75 3.75L9.75 9.75L14.25 9.75M18.0649 13.1941C17.6126 14.2861 16.9497 15.2782 16.114 16.114C15.2782 16.9497 14.2861 17.6127 13.1942 18.0649C12.1022 18.5172 10.9319 18.75 9.75 18.75C8.56812 18.75 7.39777 18.5172 6.30585 18.0649C5.21393 17.6127 4.22177 16.9497 3.38605 16.114C2.55032 15.2782 1.88739 14.2861 1.43509 13.1941C0.982788 12.1022 0.75 10.9319 0.75 9.75C0.75 7.36304 1.69821 5.07385 3.38605 3.38599C5.07385 1.69824 7.36304 0.75 9.75 0.75C12.137 0.75 14.4261 1.69824 16.114 3.38599C17.8018 5.07385 18.75 7.36304 18.75 9.75C18.75 10.9319 18.5172 12.1022 18.0649 13.1941Z" stroke="#212121" stroke-opacity="1.000000" stroke-width="1.500000" stroke-linejoin="round" stroke-linecap="round"/>
</svg>
